<svg width="32" height="33" viewBox="0 0 32 33" fill="none" xmlns="http://www.w3.org/2000/svg">
<path d="M26.46 9.98755C25.69 10.3375 24.86 10.5675 24 10.6775C24.88 10.1475 25.56 9.30755 25.88 8.29755C25.05 8.79755 24.13 9.14755 23.16 9.34755C22.37 8.48755 21.26 7.98755 20 7.98755C17.65 7.98755 15.73 9.90755 15.73 12.2775C15.73 12.6175 15.77 12.9475 15.84 13.2575C12.28 13.0775 9.11004 11.3675 7.00004 8.77755C6.63004 9.40755 6.42004 10.1475 6.42004 10.9275C6.42004 12.4175 7.17004 13.7375 8.33004 14.4875C7.62004 14.4875 6.96004 14.2875 6.38004 13.9875V14.0175C6.38004 16.0975 7.86004 17.8375 9.82004 18.2275C9.19077 18.3998 8.53013 18.4237 7.89004 18.2975C8.16165 19.15 8.69358 19.896 9.41106 20.4305C10.1285 20.965 10.9955 21.2612 11.89 21.2775C10.3737 22.478 8.49404 23.1269 6.56004 23.1175C6.22004 23.1175 5.88004 23.0975 5.54004 23.0575C7.44004 24.2775 9.70004 24.9875 12.12 24.9875C20 24.9875 24.33 18.4475 24.33 12.7775C24.33 12.5875 24.33 12.4075 24.32 12.2175C25.16 11.6175 25.88 10.8575 26.46 9.98755Z" fill="#267A96"/>
</svg>
