<?xml version="1.0" encoding="UTF-8" standalone="no"?>
<svg
   width="52"
   height="52"
   viewBox="0 0 52 52"
   fill="none"
   version="1.1"
   id="svg3"
   sodipodi:docname="database.svg"
   xml:space="preserve"
   inkscape:version="1.3 (0e150ed6c4, 2023-07-21)"
   xmlns:inkscape="http://www.inkscape.org/namespaces/inkscape"
   xmlns:sodipodi="http://sodipodi.sourceforge.net/DTD/sodipodi-0.dtd"
   xmlns="http://www.w3.org/2000/svg"
   xmlns:svg="http://www.w3.org/2000/svg"><defs
     id="defs3" /><sodipodi:namedview
     id="namedview3"
     pagecolor="#ffffff"
     bordercolor="#999999"
     borderopacity="1"
     inkscape:showpageshadow="0"
     inkscape:pageopacity="0"
     inkscape:pagecheckerboard="0"
     inkscape:deskcolor="#d1d1d1"
     showgrid="false"
     inkscape:zoom="1.8149038"
     inkscape:cx="21.213245"
     inkscape:cy="31.682119"
     inkscape:window-width="1904"
     inkscape:window-height="995"
     inkscape:window-x="8"
     inkscape:window-y="40"
     inkscape:window-maximized="0"
     inkscape:current-layer="svg3" /><path
     id="rect5"
     style="fill:#267a96;fill-opacity:1;stroke-width:69.6955"
     d="m -167.03927,-31.08548 h 72.072342 c 7.735962,0 13.96383,6.109261 13.96383,13.697896 v 72.604207 c 0,7.588634 -6.227868,13.697896 -13.96383,13.697896 h -72.072342 c -7.73596,0 -13.96383,-6.109262 -13.96383,-13.697896 v -72.604208 c 0,-7.588635 6.22787,-13.697896 13.96383,-13.697895 z"
     inkscape:export-filename="user-group.png"
     inkscape:export-xdpi="96"
     inkscape:export-ydpi="96" /><path
     d="M7.7998 31.2V39C7.7998 43.3082 15.9482 46.8 25.9998 46.8C36.0514 46.8 44.1998 43.3082 44.1998 39V31.2C44.1998 35.5082 36.0514 39 25.9998 39C15.9482 39 7.7998 35.5082 7.7998 31.2Z"
     fill="white"
     id="path1" /><path
     d="M7.7998 18.2V26C7.7998 30.3082 15.9482 33.8 25.9998 33.8C36.0514 33.8 44.1998 30.3082 44.1998 26V18.2C44.1998 22.5082 36.0514 26 25.9998 26C15.9482 26 7.7998 22.5082 7.7998 18.2Z"
     fill="white"
     id="path2" /><path
     d="M44.1998 13C44.1998 17.3082 36.0514 20.8 25.9998 20.8C15.9482 20.8 7.7998 17.3082 7.7998 13C7.7998 8.69175 15.9482 5.19995 25.9998 5.19995C36.0514 5.19995 44.1998 8.69175 44.1998 13Z"
     fill="white"
     id="path3" /><g
     style="fill:none"
     id="g5"
     transform="matrix(1.2820529,0,0,1.2820529,-164.3366,-16.085557)"><path
       d="m 33.8001,15.6 c 0,2.0687 -0.8218,4.0527 -2.2846,5.5155 -1.4628,1.4628 -3.4467,2.2845 -5.5154,2.2845 -2.0687,0 -4.0527,-0.8217 -5.5154,-2.2845 -1.4628,-1.4628 -2.2846,-3.4468 -2.2846,-5.5155 0,-2.0686 0.8218,-4.0526 2.2846,-5.5154 1.4627,-1.46277 3.4467,-2.28455 5.5154,-2.28455 2.0687,0 4.0526,0.82178 5.5154,2.28455 1.4628,1.4628 2.2846,3.4468 2.2846,5.5154 z m 13,5.2 c 0,1.3792 -0.5479,2.7018 -1.523,3.677 -0.9752,0.9752 -2.2979,1.523 -3.677,1.523 -1.3791,0 -2.7018,-0.5478 -3.677,-1.523 -0.9751,-0.9752 -1.523,-2.2978 -1.523,-3.677 0,-1.3791 0.5479,-2.7017 1.523,-3.6769 0.9752,-0.9752 2.2979,-1.5231 3.677,-1.5231 1.3791,0 2.7018,0.5479 3.677,1.5231 0.9751,0.9752 1.523,2.2978 1.523,3.6769 z m -10.4,18.2 c 0,-2.7582 -1.0957,-5.4035 -3.0461,-7.3539 C 31.4036,29.6958 28.7583,28.6 26.0001,28.6 c -2.7583,0 -5.4035,1.0958 -7.3539,3.0461 -1.9504,1.9504 -3.0461,4.5957 -3.0461,7.3539 v 7.8 h 20.8 z m -20.8,-18.2 c 0,1.3792 -0.5479,2.7018 -1.523,3.677 C 13.1019,25.4522 11.7792,26 10.4001,26 9.02097,26 7.69833,25.4522 6.72314,24.477 5.74795,23.5018 5.2001,22.1792 5.2001,20.8 c 0,-1.3791 0.54785,-2.7017 1.52304,-3.6769 C 7.69833,16.1479 9.02097,15.6 10.4001,15.6 c 1.3791,0 2.7018,0.5479 3.677,1.5231 0.9751,0.9752 1.523,2.2978 1.523,3.6769 z m 26,26 V 39 c 0.0038,-2.6434 -0.6674,-5.2441 -1.95,-7.5556 1.1527,-0.2949 2.3575,-0.3228 3.5226,-0.0813 1.1651,0.2415 2.2597,0.7459 3.2002,1.4747 0.9405,0.7288 1.7021,1.6629 2.2267,2.7308 0.5247,1.0679 0.7984,2.2416 0.8005,3.4314 v 7.8 z M 12.3501,31.4444 C 11.0676,33.756 10.3965,36.3566 10.4001,39 v 7.8 h -7.8 V 39 c -5e-4,-1.1906 0.2716,-2.3657 0.79546,-3.4349 0.52386,-1.0693 1.28556,-2.0044 2.22674,-2.7338 0.94117,-0.7293 2.03683,-1.2335 3.203,-1.4739 1.16618,-0.2404 2.3719,-0.2106 3.5248,0.087 z"
       fill="#ffffff"
       id="path1-2" /></g><path
     id="path5"
     style="fill:#267a96;fill-opacity:1;stroke-width:69.6955"
     d="m 82.121233,-91.614568 h 72.072337 c 7.73597,0 13.96383,6.109261 13.96383,13.697896 v 72.6042067 c 0,7.5886338 -6.22786,13.6978958 -13.96383,13.6978958 H 82.121233 c -7.73596,0 -13.96383,-6.109262 -13.96383,-13.6978958 V -77.916673 c 0,-7.588635 6.22787,-13.697896 13.96383,-13.697895 z"
     inkscape:export-filename="favorite.png"
     inkscape:export-xdpi="96"
     inkscape:export-ydpi="96" /><g
     style="fill:none"
     id="g4"
     transform="matrix(1.3163246,0,0,1.3163246,83.932536,-77.578958)"><path
       d="M 9.64345,30.1345 25.3157,44.8569 c 0.3244,0.3048 0.4866,0.4572 0.6846,0.4572 0.198,0 0.3603,-0.1524 0.6847,-0.4572 L 42.3572,30.1345 h 1e-4 c 1.4143,-1.3287 2.1215,-1.993 2.6175,-2.6731 2.0016,-2.7446 2.2873,-6.3823 0.7389,-9.4057 -0.3837,-0.7493 -0.9785,-1.5159 -2.168,-3.049 l -10e-5,-10e-5 -0.6703,-0.8639 c -1.1737,-1.5128 -1.7605,-2.2692 -2.2684,-2.7325 -3.5513,-3.23935 -9.1372,-2.63783 -11.9174,1.2834 -0.3977,0.5608 -0.81,1.4248 -1.6347,3.1527 -0.1286,0.2695 -0.1929,0.4042 -0.2493,0.4807 -0.3996,0.5427 -1.2107,0.5427 -1.6104,0 -0.0563,-0.0765 -0.1206,-0.2112 -0.2492,-0.4807 v 0 C 24.1212,14.1184 23.7088,13.2544 23.3112,12.6936 20.531,8.77237 14.9451,8.17085 11.3938,11.4102 10.8859,11.8735 10.299,12.6299 9.12534,14.1427 l -0.67027,0.8639 c -1.18958,1.5332 -1.78437,2.2998 -2.16811,3.0491 -1.54844,3.0234 -1.26268,6.6611 0.73887,9.4057 0.49603,0.6801 1.20323,1.3445 2.61762,2.6731 z"
       fill="#ffffff"
       stroke="#ffffff"
       stroke-width="2"
       id="path1-6" /></g><path
     id="path6"
     style="fill:#267a96;fill-opacity:1;stroke-width:69.6955"
     d="m 82.121233,-91.614568 h 72.072337 c 7.73597,0 13.96383,6.109261 13.96383,13.697896 v 72.6042067 c 0,7.5886338 -6.22786,13.6978958 -13.96383,13.6978958 H 82.121233 c -7.73596,0 -13.96383,-6.109262 -13.96383,-13.6978958 V -77.916673 c 0,-7.588635 6.22787,-13.697896 13.96383,-13.697895 z"
     inkscape:export-filename="database.png"
     inkscape:export-xdpi="96"
     inkscape:export-ydpi="96" /><g
     style="fill:none"
     id="g3"
     transform="matrix(1.2019216,0,0,1.2019216,75.813844,31.750043)"><path
       d="M 7.7998,31.2 V 39 c 0,4.3082 8.1484,7.8 18.2,7.8 10.0516,0 18.2,-3.4918 18.2,-7.8 v -7.8 c 0,4.3082 -8.1484,7.8 -18.2,7.8 -10.0516,0 -18.2,-3.4918 -18.2,-7.8 z"
       fill="#ffffff"
       id="path1-5" /><path
       d="M 7.7998,18.2 V 26 c 0,4.3082 8.1484,7.8 18.2,7.8 10.0516,0 18.2,-3.4918 18.2,-7.8 v -7.8 c 0,4.3082 -8.1484,7.8 -18.2,7.8 -10.0516,0 -18.2,-3.4918 -18.2,-7.8 z"
       fill="#ffffff"
       id="path2-3" /><path
       d="m 44.1998,13 c 0,4.3082 -8.1484,7.8 -18.2,7.8 -10.0516,0 -18.2,-3.4918 -18.2,-7.8 0,-4.30825 8.1484,-7.80005 18.2,-7.80005 10.0516,0 18.2,3.4918 18.2,7.80005 z"
       fill="#ffffff"
       id="path3-5" /></g></svg>
