<svg width="52" height="52" viewBox="0 0 52 52" fill="none" xmlns="http://www.w3.org/2000/svg">
<path d="M9.64345 30.1345L25.3157 44.8569C25.6401 45.1617 25.8023 45.3141 26.0003 45.3141C26.1983 45.3141 26.3606 45.1617 26.685 44.8569L42.3572 30.1345L42.3573 30.1345C43.7716 28.8058 44.4788 28.1415 44.9748 27.4614C46.9764 24.7168 47.2621 21.0791 45.7137 18.0557C45.33 17.3064 44.7352 16.5398 43.5457 15.0067L43.5456 15.0066L42.8753 14.1427C41.7016 12.6299 41.1148 11.8735 40.6069 11.4102C37.0556 8.17085 31.4697 8.77237 28.6895 12.6936C28.2918 13.2544 27.8795 14.1184 27.0548 15.8463C26.9262 16.1158 26.8619 16.2505 26.8055 16.327C26.4059 16.8697 25.5948 16.8697 25.1951 16.327C25.1388 16.2505 25.0745 16.1158 24.9459 15.8463L24.9459 15.8463C24.1212 14.1184 23.7088 13.2544 23.3112 12.6936C20.531 8.77237 14.9451 8.17085 11.3938 11.4102C10.8859 11.8735 10.299 12.6299 9.12534 14.1427L8.45507 15.0066C7.26549 16.5398 6.6707 17.3064 6.28696 18.0557C4.73852 21.0791 5.02428 24.7168 7.02583 27.4614C7.52186 28.1415 8.22906 28.8059 9.64345 30.1345Z" fill="white" stroke="white" stroke-width="2"/>
</svg>
