<svg width="32" height="33" viewBox="0 0 32 33" fill="none" xmlns="http://www.w3.org/2000/svg">
<path d="M19 16.4875C19 17.0809 18.8241 17.6609 18.4944 18.1543C18.1648 18.6476 17.6962 19.0321 17.1481 19.2592C16.5999 19.4863 15.9967 19.5457 15.4147 19.4299C14.8328 19.3141 14.2982 19.0284 13.8787 18.6089C13.4591 18.1893 13.1734 17.6548 13.0576 17.0728C12.9419 16.4909 13.0013 15.8877 13.2284 15.3395C13.4554 14.7913 13.8399 14.3228 14.3333 13.9931C14.8266 13.6635 15.4067 13.4875 16 13.4875C16.7949 13.49 17.5565 13.8069 18.1186 14.369C18.6807 14.931 18.9975 15.6927 19 16.4875ZM25.375 12.3625V20.6125C25.375 22.0049 24.8219 23.3403 23.8373 24.3249C22.8527 25.3094 21.5174 25.8625 20.125 25.8625H11.875C10.4826 25.8625 9.14726 25.3094 8.16269 24.3249C7.17812 23.3403 6.625 22.0049 6.625 20.6125V12.3625C6.625 10.9702 7.17812 9.6348 8.16269 8.65024C9.14726 7.66567 10.4826 7.11255 11.875 7.11255H20.125C21.5174 7.11255 22.8527 7.66567 23.8373 8.65024C24.8219 9.6348 25.375 10.9702 25.375 12.3625ZM20.5 16.4875C20.5 15.5975 20.2361 14.7275 19.7416 13.9875C19.2471 13.2475 18.5443 12.6707 17.7221 12.3301C16.8998 11.9895 15.995 11.9004 15.1221 12.074C14.2492 12.2476 13.4474 12.6762 12.818 13.3056C12.1887 13.9349 11.7601 14.7367 11.5865 15.6096C11.4128 16.4826 11.5019 17.3874 11.8425 18.2096C12.1831 19.0319 12.7599 19.7347 13.4999 20.2292C14.24 20.7236 15.11 20.9875 16 20.9875C17.1935 20.9875 18.3381 20.5134 19.182 19.6695C20.0259 18.8256 20.5 17.681 20.5 16.4875ZM22 11.6125C22 11.39 21.934 11.1725 21.8104 10.9875C21.6868 10.8025 21.5111 10.6583 21.3055 10.5732C21.1 10.488 20.8738 10.4658 20.6555 10.5092C20.4373 10.5526 20.2368 10.6597 20.0795 10.8171C19.9222 10.9744 19.815 11.1748 19.7716 11.3931C19.7282 11.6113 19.7505 11.8375 19.8356 12.0431C19.9208 12.2486 20.065 12.4243 20.25 12.548C20.435 12.6716 20.6525 12.7375 20.875 12.7375C21.1734 12.7375 21.4595 12.619 21.6705 12.408C21.8815 12.1971 22 11.9109 22 11.6125Z" fill="#267A96"/>
</svg>
