<svg width="22" height="18" viewBox="0 0 22 18" fill="none" xmlns="http://www.w3.org/2000/svg">
<path d="M21.46 2.98755C20.69 3.33755 19.86 3.56755 19 3.67755C19.88 3.14755 20.56 2.30755 20.88 1.29755C20.05 1.79755 19.13 2.14755 18.16 2.34755C17.37 1.48755 16.26 0.987549 15 0.987549C12.65 0.987549 10.73 2.90755 10.73 5.27755C10.73 5.61755 10.77 5.94755 10.84 6.25755C7.28004 6.07755 4.11004 4.36755 2.00004 1.77755C1.63004 2.40755 1.42004 3.14755 1.42004 3.92755C1.42004 5.41755 2.17004 6.73755 3.33004 7.48755C2.62004 7.48755 1.96004 7.28755 1.38004 6.98755V7.01755C1.38004 9.09755 2.86004 10.8375 4.82004 11.2275C4.19077 11.3998 3.53013 11.4237 2.89004 11.2975C3.16165 12.15 3.69358 12.896 4.41106 13.4305C5.12854 13.965 5.99549 14.2612 6.89004 14.2775C5.37367 15.478 3.49404 16.1269 1.56004 16.1175C1.22004 16.1175 0.880039 16.0975 0.540039 16.0575C2.44004 17.2775 4.70004 17.9875 7.12004 17.9875C15 17.9875 19.33 11.4475 19.33 5.77755C19.33 5.58755 19.33 5.40755 19.32 5.21755C20.16 4.61755 20.88 3.85755 21.46 2.98755Z" fill="#267A96"/>
</svg>
