<svg width="52" height="52" viewBox="0 0 52 52" fill="none" xmlns="http://www.w3.org/2000/svg">
<path d="M33.8001 15.6C33.8001 17.6687 32.9783 19.6527 31.5155 21.1155C30.0527 22.5783 28.0688 23.4 26.0001 23.4C23.9314 23.4 21.9474 22.5783 20.4847 21.1155C19.0219 19.6527 18.2001 17.6687 18.2001 15.6C18.2001 13.5314 19.0219 11.5474 20.4847 10.0846C21.9474 8.62183 23.9314 7.80005 26.0001 7.80005C28.0688 7.80005 30.0527 8.62183 31.5155 10.0846C32.9783 11.5474 33.8001 13.5314 33.8001 15.6ZM46.8001 20.8C46.8001 22.1792 46.2522 23.5018 45.2771 24.477C44.3019 25.4522 42.9792 26 41.6001 26C40.221 26 38.8983 25.4522 37.9231 24.477C36.948 23.5018 36.4001 22.1792 36.4001 20.8C36.4001 19.4209 36.948 18.0983 37.9231 17.1231C38.8983 16.1479 40.221 15.6 41.6001 15.6C42.9792 15.6 44.3019 16.1479 45.2771 17.1231C46.2522 18.0983 46.8001 19.4209 46.8001 20.8ZM36.4001 39C36.4001 36.2418 35.3044 33.5965 33.354 31.6461C31.4036 29.6958 28.7583 28.6 26.0001 28.6C23.2418 28.6 20.5966 29.6958 18.6462 31.6461C16.6958 33.5965 15.6001 36.2418 15.6001 39V46.8H36.4001V39ZM15.6001 20.8C15.6001 22.1792 15.0522 23.5018 14.0771 24.477C13.1019 25.4522 11.7792 26 10.4001 26C9.02097 26 7.69833 25.4522 6.72314 24.477C5.74795 23.5018 5.2001 22.1792 5.2001 20.8C5.2001 19.4209 5.74795 18.0983 6.72314 17.1231C7.69833 16.1479 9.02097 15.6 10.4001 15.6C11.7792 15.6 13.1019 16.1479 14.0771 17.1231C15.0522 18.0983 15.6001 19.4209 15.6001 20.8ZM41.6001 46.8V39C41.6039 36.3566 40.9327 33.7559 39.6501 31.4444C40.8028 31.1495 42.0076 31.1216 43.1727 31.3631C44.3378 31.6046 45.4324 32.109 46.3729 32.8378C47.3134 33.5666 48.075 34.5007 48.5996 35.5686C49.1243 36.6365 49.398 37.8102 49.4001 39V46.8H41.6001ZM12.3501 31.4444C11.0676 33.756 10.3965 36.3566 10.4001 39V46.8H2.6001V39C2.5996 37.8094 2.8717 36.6343 3.39556 35.5651C3.91942 34.4958 4.68112 33.5607 5.6223 32.8313C6.56347 32.102 7.65913 31.5978 8.8253 31.3574C9.99148 31.117 11.1972 31.1468 12.3501 31.4444Z" fill="white"/>
</svg>
