<svg width="36" height="36" viewBox="0 0 36 36" fill="none" xmlns="http://www.w3.org/2000/svg">
<path fill-rule="evenodd" clip-rule="evenodd" d="M14.8197 25.765C20.2403 25.5038 24.5526 21.0995 24.5526 15.7032C24.5526 14.1553 24.1978 12.6891 23.5638 11.3788C23.1538 12.0501 22.7335 12.739 22.3082 13.4368C22.519 14.1572 22.6321 14.9175 22.6321 15.7032H22.6281C22.6281 16.0692 22.6041 16.4312 22.5561 16.7854L21.3918 16.4981C21.1176 16.432 20.8786 16.2787 20.706 16.068C18.4543 19.769 16.2419 23.4177 14.8197 25.765ZM21.9585 12.4736C21.8441 12.2116 21.7162 11.9564 21.5758 11.709L20.5516 12.1143C19.9234 12.3623 19.5993 13.0509 19.8114 13.6805L20.3161 15.1698C19.8854 15.8776 19.455 16.5852 19.0302 17.2841C17.3261 20.0875 15.7102 22.7519 14.5203 24.7154C14.291 25.0939 14.0775 25.4463 13.8822 25.7687C13.622 25.7582 13.3644 25.7381 13.1096 25.7089C12.8334 24.9726 12.513 24.1168 12.1788 23.2198C11.208 20.6142 10.1267 17.6791 9.66404 16.3073C9.53859 15.9354 9.33163 15.5876 9.07256 15.2664L10.589 15.6914C11.2772 15.8842 11.7493 16.5021 11.7493 17.2065V18.7766C11.7493 19.2095 11.9974 19.603 12.3895 19.7958C12.7816 19.9886 13.0297 20.3822 13.0297 20.815V22.3498C13.0297 22.9636 13.6258 23.4083 14.226 23.2391C14.8701 23.0581 15.3703 22.5504 15.5343 21.909L15.6463 21.4683C15.8144 20.8032 16.2545 20.2326 16.8586 19.8942L17.1827 19.7132C17.7829 19.3787 18.151 18.7491 18.151 18.0722V17.7456C18.151 17.2458 17.9469 16.7657 17.5868 16.4116L17.4308 16.2581C17.0707 15.9039 16.5826 15.7032 16.0744 15.7032H14.35C13.9059 15.7032 13.4658 15.5891 13.0777 15.3727L11.6973 14.5974C11.5253 14.4991 11.3932 14.3416 11.3292 14.1567C11.2012 13.7789 11.3732 13.3697 11.7373 13.1926L11.9734 13.0745C12.2375 12.9447 12.5455 12.921 12.8256 13.0155L13.7538 13.3185C14.0819 13.4248 14.442 13.3028 14.6301 13.0234C14.8181 12.7479 14.7981 12.3819 14.5821 12.1261L14.0379 11.4847C13.6378 11.0125 13.6418 10.3238 14.0499 9.85947L14.6781 9.13933C15.0302 8.73401 15.0862 8.15554 14.8181 7.69512L14.7221 7.52984C14.5821 7.52197 14.446 7.51804 14.306 7.51804C10.593 7.51804 7.44424 9.91457 6.37597 13.2241L6.41711 13.2946C5.812 12.9962 5.17962 12.7492 4.57296 12.5681C5.91286 8.5391 9.76547 5.62915 14.31 5.62915C18.0595 5.62915 21.338 7.61001 23.1229 10.5659C22.7432 11.1874 22.3536 11.8257 21.9585 12.4736ZM4.35146 13.3369C4.16576 14.0958 4.06738 14.8882 4.06738 15.7032C4.06738 20.5564 7.55543 24.6073 12.2007 25.5635C11.1175 22.6733 9.50469 18.3379 8.90602 16.563C8.44094 15.1842 6.26184 13.9086 4.35146 13.3369Z" fill="#267A96"/>
<path d="M13.2513 28.3561C13.2513 28.3561 9.84151 19.3357 8.90634 16.5632C7.97117 13.7907 0.105651 11.4357 1.43013 14.3807C2.7546 17.3257 6.90993 28.6102 8.99184 32.9302C11.0738 37.2501 14.4574 36.8686 17.5468 32.676C20.6362 28.4833 34.4994 3.96263 35.8144 1.92983C37.1293 -0.102968 31.1131 -0.738188 28.2924 3.70856C25.4717 8.1553 13.2513 28.3561 13.2513 28.3561Z" fill="#267A96"/>
<path d="M1.56065 10.1021C1.17914 11.0973 1.65236 12.1665 1.93667 12.5767C1.63122 10.1564 2.9244 11.0979 3.60917 11.8712C3.54159 10.7704 4.73157 9.88623 5.33501 9.58176C2.82176 10.2132 2.08468 8.90344 2.0303 8.16964C2.03957 9.05077 1.72106 9.82507 1.56065 10.1021Z" fill="#267A96"/>
<ellipse cx="0.757258" cy="0.769924" rx="0.757258" ry="0.769924" transform="matrix(-0.0105188 -0.999945 0.999948 -0.0101755 0.0214844 10.2554)" fill="#267A96"/>
<path d="M5.08536 5.20124C4.33989 5.97179 4.35241 7.13781 4.45186 7.6245C5.12884 5.27834 5.94713 6.64084 6.27166 7.61536C6.6453 6.57555 8.09141 6.217 8.76777 6.16771C6.20293 5.78661 6.04264 4.29795 6.2831 3.60126C5.94275 4.41637 5.3428 5.00754 5.08536 5.20124Z" fill="#267A96"/>
<ellipse cx="0.759098" cy="0.76811" rx="0.759098" ry="0.76811" transform="matrix(0.385311 -0.922787 0.927217 0.374524 3.60938 4.75342)" fill="#267A96"/>
<path d="M11.2637 2.41581C10.2529 2.7939 9.75193 3.85077 9.6278 4.33194C11.269 2.50381 11.4084 4.08031 11.273 5.09708C12.0667 4.31814 13.5284 4.60937 14.16 4.85236C12.0144 3.41866 12.5238 2.00802 13.0468 1.48191C12.3817 2.07236 11.581 2.35053 11.2637 2.41581Z" fill="#267A96"/>
<ellipse cx="0.764263" cy="0.762971" rx="0.764263" ry="0.762971" transform="matrix(0.747798 -0.663927 0.676177 0.736739 10.1279 1.38403)" fill="#267A96"/>
<path d="M17.847 2.87817C16.772 2.76237 15.8369 3.47919 15.5037 3.85208C17.8111 2.95892 17.2057 4.42508 16.6146 5.26981C17.6818 4.93153 18.8486 5.84514 19.2985 6.34422C18.0514 4.10717 19.1578 3.07914 19.8669 2.84475C19.0015 3.07282 18.1598 2.96206 17.847 2.87817Z" fill="#267A96"/>
<ellipse cx="0.769083" cy="0.758112" rx="0.769083" ry="0.758112" transform="matrix(0.966983 -0.254839 0.262852 0.964836 17.3145 1.45093)" fill="#267A96"/>
<path d="M23.7133 5.71908C22.7986 5.15172 21.6387 5.39309 21.1731 5.5847C23.645 5.77617 22.4477 6.83321 21.54 7.3378C22.6501 7.49364 23.2919 8.81769 23.474 9.46023C23.3496 6.91191 24.802 6.46459 25.5438 6.55947C24.6644 6.39155 23.957 5.92924 23.7133 5.71908Z" fill="#267A96"/>
<ellipse cx="0.769469" cy="0.757721" rx="0.769469" ry="0.757721" transform="matrix(0.982256 0.187544 -0.193638 0.981073 23.8691 4.2063)" fill="#267A96"/>
</svg>
