<svg width="36" height="37" viewBox="0 0 36 37" fill="none" xmlns="http://www.w3.org/2000/svg">
<path fill-rule="evenodd" clip-rule="evenodd" d="M14.8197 26.2528C20.2403 25.9916 24.5526 21.5873 24.5526 16.191C24.5526 14.6431 24.1978 13.1769 23.5638 11.8666C23.1538 12.5379 22.7335 13.2268 22.3082 13.9246C22.519 14.645 22.6321 15.4052 22.6321 16.191H22.6281C22.6281 16.557 22.6041 16.919 22.5561 17.2732L21.3918 16.9859C21.1176 16.9198 20.8786 16.7665 20.706 16.5558C18.4543 20.2568 16.2419 23.9055 14.8197 26.2528ZM21.9585 12.9614C21.8441 12.6994 21.7162 12.4442 21.5758 12.1968L20.5516 12.6021C19.9234 12.85 19.5993 13.5387 19.8114 14.1683L20.3161 15.6576C19.8854 16.3653 19.455 17.073 19.0302 17.7719C17.3261 20.5753 15.7102 23.2397 14.5203 25.2032C14.291 25.5817 14.0775 25.9341 13.8822 26.2565C13.622 26.246 13.3644 26.2259 13.1096 26.1967C12.8334 25.4604 12.513 24.6046 12.1788 23.7076C11.208 21.102 10.1267 18.1669 9.66404 16.7951C9.53859 16.4232 9.33163 16.0754 9.07256 15.7542L10.589 16.1792C11.2772 16.372 11.7493 16.9899 11.7493 17.6943V19.2644C11.7493 19.6973 11.9974 20.0908 12.3895 20.2836C12.7816 20.4764 13.0297 20.87 13.0297 21.3028V22.8375C13.0297 23.4514 13.6258 23.8961 14.226 23.7269C14.8701 23.5459 15.3703 23.0382 15.5343 22.3968L15.6463 21.9561C15.8144 21.291 16.2545 20.7204 16.8586 20.382L17.1827 20.201C17.7829 19.8665 18.151 19.2368 18.151 18.56V18.2334C18.151 17.7336 17.9469 17.2535 17.5868 16.8993L17.4308 16.7459C17.0707 16.3917 16.5826 16.191 16.0744 16.191H14.35C13.9059 16.191 13.4658 16.0769 13.0777 15.8605L11.6973 15.0852C11.5253 14.9868 11.3932 14.8294 11.3292 14.6445C11.2012 14.2667 11.3732 13.8575 11.7373 13.6804L11.9734 13.5623C12.2375 13.4325 12.5455 13.4088 12.8256 13.5033L13.7538 13.8063C14.0819 13.9125 14.442 13.7906 14.6301 13.5112C14.8181 13.2357 14.7981 12.8697 14.5821 12.6139L14.0379 11.9725C13.6378 11.5003 13.6418 10.8116 14.0499 10.3473L14.6781 9.62713C15.0302 9.2218 15.0862 8.64333 14.8181 8.18292L14.7221 8.01764C14.5821 8.00977 14.446 8.00583 14.306 8.00583C10.593 8.00583 7.44424 10.4024 6.37597 13.7118L6.41711 13.7824C5.812 13.484 5.17962 13.237 4.57296 13.0559C5.91286 9.02689 9.76547 6.11694 14.31 6.11694C18.0595 6.11694 21.338 8.0978 23.1229 11.0537C22.7432 11.6752 22.3536 12.3135 21.9585 12.9614ZM4.35146 13.8247C4.16576 14.5836 4.06738 15.376 4.06738 16.191C4.06738 21.0442 7.55543 25.0951 12.2007 26.0513C11.1175 23.1611 9.50469 18.8257 8.90602 17.0508C8.44094 15.672 6.26184 14.3964 4.35146 13.8247Z" fill="#267A96"/>
<path d="M13.2513 28.8439C13.2513 28.8439 9.84151 19.8235 8.90634 17.051C7.97117 14.2785 0.105651 11.9235 1.43013 14.8685C2.7546 17.8135 6.90993 29.098 8.99184 33.418C11.0738 37.7379 14.4574 37.3564 17.5468 33.1638C20.6362 28.9711 34.4994 4.45043 35.8144 2.41763C37.1293 0.384825 31.1131 -0.250395 28.2924 4.19635C25.4717 8.64309 13.2513 28.8439 13.2513 28.8439Z" fill="#267A96"/>
<path d="M1.56065 10.5899C1.17914 11.5851 1.65236 12.6543 1.93667 13.0645C1.63122 10.6442 2.9244 11.5857 3.60917 12.359C3.54159 11.2582 4.73157 10.374 5.33501 10.0696C2.82176 10.701 2.08468 9.39123 2.0303 8.65743C2.03957 9.53856 1.72106 10.3129 1.56065 10.5899Z" fill="#267A96"/>
<ellipse cx="0.757258" cy="0.769924" rx="0.757258" ry="0.769924" transform="matrix(-0.0105188 -0.999945 0.999948 -0.0101755 0.0214844 10.7432)" fill="#267A96"/>
<path d="M5.08536 5.68904C4.33989 6.45958 4.35241 7.62561 4.45186 8.1123C5.12884 5.76613 5.94713 7.12863 6.27166 8.10315C6.6453 7.06334 8.09141 6.7048 8.76777 6.6555C6.20293 6.2744 6.04264 4.78574 6.2831 4.08905C5.94275 4.90416 5.3428 5.49534 5.08536 5.68904Z" fill="#267A96"/>
<ellipse cx="0.759098" cy="0.76811" rx="0.759098" ry="0.76811" transform="matrix(0.385311 -0.922787 0.927217 0.374524 3.60938 5.24121)" fill="#267A96"/>
<path d="M11.2637 2.9036C10.2529 3.28169 9.75193 4.33856 9.6278 4.81974C11.269 2.99161 11.4084 4.56811 11.273 5.58487C12.0667 4.80593 13.5284 5.09717 14.16 5.34015C12.0144 3.90645 12.5238 2.49581 13.0468 1.96971C12.3817 2.56015 11.581 2.83832 11.2637 2.9036Z" fill="#267A96"/>
<ellipse cx="0.764263" cy="0.762971" rx="0.764263" ry="0.762971" transform="matrix(0.747798 -0.663927 0.676177 0.736739 10.1279 1.87183)" fill="#267A96"/>
<path d="M17.847 3.36597C16.772 3.25016 15.8369 3.96699 15.5037 4.33987C17.8111 3.44672 17.2057 4.91287 16.6146 5.7576C17.6818 5.41932 18.8486 6.33293 19.2985 6.83202C18.0514 4.59496 19.1578 3.56693 19.8669 3.33255C19.0015 3.56061 18.1598 3.44985 17.847 3.36597Z" fill="#267A96"/>
<ellipse cx="0.769083" cy="0.758112" rx="0.769083" ry="0.758112" transform="matrix(0.966983 -0.254839 0.262852 0.964836 17.3145 1.93872)" fill="#267A96"/>
<path d="M23.7133 6.20687C22.7986 5.63951 21.6387 5.88088 21.1731 6.07249C23.645 6.26396 22.4477 7.32101 21.54 7.8256C22.6501 7.98144 23.2919 9.30548 23.474 9.94802C23.3496 7.3997 24.802 6.95238 25.5438 7.04727C24.6644 6.87934 23.957 6.41704 23.7133 6.20687Z" fill="#267A96"/>
<ellipse cx="0.769469" cy="0.757721" rx="0.769469" ry="0.757721" transform="matrix(0.982256 0.187544 -0.193638 0.981073 23.8691 4.69409)" fill="#267A96"/>
</svg>
